<?xml version="1.0" encoding="utf-8"?>
<!-- Generator: Adobe Illustrator 22.1.0, SVG Export Plug-In . SVG Version: 6.00 Build 0)  -->
<svg version="1.1" id="Layer_1" xmlns="http://www.w3.org/2000/svg" xmlns:xlink="http://www.w3.org/1999/xlink" x="0px" y="0px"
	 viewBox="0 0 512 512" style="enable-background:new 0 0 512 512;" xml:space="preserve">
<g>
	<path d="M432.8,31H79.2C52.6,31,31,52.6,31,79.2v353.6c0,26.6,21.6,48.2,48.2,48.2h353.6c26.6,0,48.2-21.6,48.2-48.2V79.2
		C481,52.6,459.4,31,432.8,31z M195.7,356.4c-55.5,0-100.4-44.9-100.4-100.4s44.9-100.4,100.4-100.4c27.1,0,49.7,9.8,67.3,26.3
		l-27.2,26.2c-7.4-7.1-20.4-15.5-40-15.5c-34.3,0-62.2,28.3-62.2,63.5c0,35.1,27.9,63.5,62.2,63.5c39.8,0,54.6-28.6,57.1-43.3h-57.2
		v-34.6h94.8c1,5,1.6,10.1,1.6,16.7C292.2,315.8,253.7,356.4,195.7,356.4L195.7,356.4z M416.7,274.3h-29.1v29.1h-29.3v-29.1h-29.1
		V245h29.1v-29.1h29.3V245h29.1V274.3z"/>
</g>
</svg>
